<svg width="26" height="23" viewBox="0 0 26 23" xmlns="http://www.w3.org/2000/svg">
<path d="M22.7598 0.459053H2.44727C1.15332 0.459053 0.103516 1.50886 0.103516 2.8028V19.9903C0.103516 21.2842 1.15332 22.3341 2.44727 22.3341H22.7598C24.0537 22.3341 25.1035 21.2842 25.1035 19.9903V2.8028C25.1035 1.50886 24.0537 0.459053 22.7598 0.459053ZM18.6777 14.6436C18.9121 14.878 18.9121 15.2589 18.6777 15.4932L16.7002 17.4708C16.4658 17.7051 16.085 17.7051 15.8506 17.4708L12.6035 14.1944L9.35645 17.4708C9.12207 17.7051 8.74121 17.7051 8.50684 17.4708L6.5293 15.4932C6.29492 15.2589 6.29492 14.878 6.5293 14.6436L9.80566 11.3966L6.5293 8.14948C6.29492 7.91511 6.29492 7.53425 6.5293 7.29987L8.50684 5.32233C8.74121 5.08796 9.12207 5.08796 9.35645 5.32233L12.6035 8.5987L15.8506 5.32233C16.085 5.08796 16.4658 5.08796 16.7002 5.32233L18.6777 7.29987C18.9121 7.53425 18.9121 7.91511 18.6777 8.14948L15.4014 11.3966L18.6777 14.6436Z"/>
</svg>
